<svg xmlns="http://www.w3.org/2000/svg" viewBox="0 0 520 770"><defs><style>.cls-1{fill:#d5e1ea;}.cls-2{fill:#e9eef3;}.cls-3{font-size:29.82px;}.cls-13,.cls-19,.cls-23,.cls-26,.cls-3,.cls-31,.cls-34,.cls-4,.cls-5{fill:#4d5e6d;}.cls-13,.cls-26,.cls-3,.cls-4{font-family:Roboto-Bold, Roboto;font-weight:700;}.cls-4{font-size:18px;}.cls-5{font-size:16.97px;}.cls-19,.cls-23,.cls-5{font-family:Roboto-Regular, Roboto;}.cls-6{letter-spacing:-0.01em;}.cls-7{letter-spacing:-0.01em;}.cls-8{letter-spacing:-0.01em;}.cls-9{letter-spacing:-0.05em;}.cls-10{letter-spacing:-0.01em;}.cls-11{letter-spacing:-0.05em;}.cls-12{letter-spacing:-0.01em;}.cls-13{font-size:25.46px;}.cls-14{letter-spacing:-0.02em;}.cls-15{letter-spacing:-0.01em;}.cls-16{letter-spacing:-0.01em;}.cls-17,.cls-18,.cls-22,.cls-25,.cls-35{fill:none;}.cls-17{stroke:#d5e1ea;}.cls-17,.cls-18,.cls-22,.cls-24,.cls-25,.cls-34,.cls-35{stroke-miterlimit:10;}.cls-18{stroke:#b4c3d0;}.cls-19{font-size:14px;}.cls-20{letter-spacing:-0.02em;}.cls-21{letter-spacing:-0.01em;}.cls-22,.cls-24,.cls-25{stroke:#b3c2d0;}.cls-22,.cls-25,.cls-35{stroke-width:2px;}.cls-23{font-size:21.53px;}.cls-24{fill:#b3c2d0;}.cls-25,.cls-35{stroke-linecap:round;}.cls-26{font-size:18.37px;}.cls-27{letter-spacing:-0.04em;}.cls-28{letter-spacing:-0.01em;}.cls-29{letter-spacing:-0.01em;}.cls-30{fill:#8b969e;}.cls-32{fill:#fcfcfc;}.cls-33{fill:#b4c3d0;}.cls-34,.cls-35{stroke:#4d5e6d;}</style></defs><g id="Layer_2" data-name="Layer 2"><rect class="cls-1" width="520" height="770"/></g><g id="Layer_1" data-name="Layer 1"><rect class="cls-2" x="17.78" y="17.66" width="484.44" height="107.56" rx="12"/><rect class="cls-2" x="17.78" y="139.81" width="237.33" height="164.71" rx="10.39"/><rect class="cls-2" x="264.89" y="139.81" width="237.33" height="164.71" rx="10.39"/><rect class="cls-2" x="17.78" y="587.63" width="237.33" height="164.71" rx="10.39"/><rect class="cls-2" x="262.11" y="587.63" width="237.33" height="164.71" rx="10.39"/><rect class="cls-2" x="17.78" y="317.94" width="325.33" height="253.06" rx="15.08"/><text class="cls-3" transform="translate(161.18 52.62)">Good Morning!</text><text class="cls-3" transform="translate(32.53 200.11)">7h 45m</text><text class="cls-4" transform="translate(33.07 168.3)">Sleep</text><text class="cls-5" transform="translate(274.98 216.31)">Time <tspan class="cls-6" x="42.35" y="0">t</tspan><tspan x="47.74" y="0">o ta</tspan><tspan class="cls-7" x="76.42" y="0">k</tspan><tspan x="84.85" y="0">e </tspan><tspan class="cls-8" x="98.06" y="0">y</tspan><tspan x="105.97" y="0">our Omega-3 </tspan><tspan x="0" y="15.76">pills!</tspan></text><text class="cls-5" transform="translate(122.59 347.03)"><tspan class="cls-9">T</tspan><tspan x="9.31" y="0">od</tspan><tspan class="cls-8" x="28.56" y="0">a</tspan><tspan x="37.67" y="0">y</tspan></text><text class="cls-5" transform="translate(274.98 646.22)">Get some light exposu<tspan class="cls-10" x="168.51" y="0">r</tspan><tspan x="174.11" y="0">e </tspan><tspan class="cls-6" x="0" y="15.76">t</tspan><tspan x="5.39" y="15.76">od</tspan><tspan class="cls-8" x="24.64" y="15.76">a</tspan><tspan class="cls-11" x="33.75" y="15.76">y</tspan><tspan x="40.89" y="15.76">, the sun is h</tspan><tspan class="cls-8" x="134.71" y="15.76">a</tspan><tspan x="143.81" y="15.76">ving the </tspan><tspan x="0" y="31.52">pe</tspan><tspan class="cls-12" x="18.53" y="31.52">f</tspan><tspan x="24.23" y="31.52">ect uv with 3!</tspan></text><text class="cls-13" transform="translate(43.22 246.13)">85%</text><text class="cls-5" transform="translate(41.17 263.82)"><tspan class="cls-14">A</tspan><tspan class="cls-15" x="10.66" y="0">v</tspan><tspan x="18.76" y="0">a</tspan><tspan class="cls-16" x="27.99" y="0">r</tspan><tspan x="33.58" y="0">ge</tspan><tspan x="5.85" y="15.76">sleep</tspan></text><line class="cls-17" x1="30.52" y1="66.99" x2="494.22" y2="66.99"/><line class="cls-17" x1="30.26" y1="361.46" x2="335.11" y2="361.46"/><line class="cls-18" x1="77.4" y1="379.27" x2="335.11" y2="379.27"/><line class="cls-17" x1="70.28" y1="567.31" x2="70.28" y2="364.3"/><text class="cls-19" transform="translate(66.55 99.23)">9:00</text><text class="cls-19" transform="translate(294 99.23)">9:30AM Meeting with<tspan class="cls-20" x="132.16" y="0"> </tspan><tspan x="135.36" y="0">The </tspan><tspan class="cls-21" x="162.32" y="0">P</tspan><tspan x="171.06" y="0">ope</tspan></text><text class="cls-19" transform="translate(38.14 383.54)">9:00</text><text class="cls-19" transform="translate(38.14 433.53)">9:30</text><text class="cls-19" transform="translate(30.27 487.73)">10:00</text><text class="cls-19" transform="translate(30.27 551.86)">10:30</text><path class="cls-22" d="M58.11,99.07a14.07,14.07,0,1,1,.56-3.93,14.09,14.09,0,0,1-.56,3.93"/><text class="cls-23" transform="translate(418.14 48.72)">25°</text><path class="cls-24" d="M486.1,40.29a8.29,8.29,0,0,0-1-1.18.48.48,0,0,1-.17-.49,9.9,9.9,0,0,0,.24-1.95,2.76,2.76,0,0,0-1.87-2.73,9.07,9.07,0,0,0-2.08-.37.78.78,0,0,1-.68-.37A5.8,5.8,0,0,0,474,30.71a14.23,14.23,0,0,0-2.08,1,19.46,19.46,0,0,0-1.62-1.2,4.6,4.6,0,0,0-5.88.55,11.36,11.36,0,0,0-1,1.15.62.62,0,0,1-.51.28,2.55,2.55,0,0,0-.61.08,3.42,3.42,0,0,0-3,4,.87.87,0,0,1-.15.51c-.26.45-.6.85-.81,1.31a2.2,2.2,0,0,0,.54,2.75,16.66,16.66,0,0,0,1.64,1.09,1,1,0,0,1,.36.39,4.27,4.27,0,0,0,1.19,1.74,3,3,0,0,0,2.18.83c4.64-.05,9.28-.05,13.92-.07l4.65,0a1.94,1.94,0,0,0,.54,0,4.38,4.38,0,0,0,3-3A2.07,2.07,0,0,0,486.1,40.29ZM460.69,41.6a4,4,0,0,1-1.57-1.11,1.53,1.53,0,0,1-.23-1.71,7.86,7.86,0,0,1,.9-1.39.88.88,0,0,0,.2-.71,5.68,5.68,0,0,1,0-1.43,2.69,2.69,0,0,1,2.64-2.06,1.78,1.78,0,0,0,1.44-.79A6.22,6.22,0,0,1,465.67,31a3.61,3.61,0,0,1,3.63-.28,6.78,6.78,0,0,1,2.14,1.51c-.54.76-1.05,1.5-1.58,2.23a.43.43,0,0,1-.34.12,15,15,0,0,0-2.12,0,3.42,3.42,0,0,0-2.9,2.85c0,.15-.07.3-.1.46C462.09,38,461,39.36,460.69,41.6Zm24.6,1.31a3.64,3.64,0,0,1-2.15,1.54,2,2,0,0,1-.42,0c-3.75,0-7.5,0-11.25,0-2.34,0-4.68,0-7,.06a3,3,0,0,1-2.54-4.73,2.8,2.8,0,0,1,2.59-1.34l.49,0c0-.31.07-.62.13-.92a2.86,2.86,0,0,1,2.93-2.51,9.48,9.48,0,0,1,1.76.19c.27.05.34,0,.47-.23A18.41,18.41,0,0,1,472,32.71a5,5,0,0,1,7.56.34,8.19,8.19,0,0,1,.67,1c.11.19.21.2.4.2a9.13,9.13,0,0,1,1.73.09,2.46,2.46,0,0,1,2.1,3c-.08.64-.24,1.26-.36,1.87a10.44,10.44,0,0,1,1.11,1A1.93,1.93,0,0,1,485.29,42.91Z"/><path class="cls-24" d="M465.5,46.46c-.06.16-.09.26-.13.35-.38.93-.78,1.86-1.16,2.79-.1.24-.22.44-.51.31s-.17-.36-.08-.57c.4-1,.79-1.91,1.2-2.85a.62.62,0,0,1,.41-.26C465.3,46.22,465.41,46.39,465.5,46.46Z"/><path class="cls-24" d="M471.15,46.81,470,49.66c-.09.21-.21.35-.44.26s-.18-.2-.24-.28l.12-.33c.39-.92.78-1.83,1.16-2.75.1-.22.21-.45.5-.32S471.24,46.59,471.15,46.81Z"/><path class="cls-24" d="M482.79,46.51c-.05.14-.06.2-.09.26-.4,1-.81,1.93-1.21,2.89-.09.22-.26.38-.47.24a.54.54,0,0,1-.12-.48c.39-1,.81-2,1.24-3a.53.53,0,0,1,.42-.22C482.64,46.23,482.73,46.43,482.79,46.51Z"/><path class="cls-24" d="M457.19,52c-.41,1-.81,1.93-1.24,2.88a.53.53,0,0,1-.39.25c-.09,0-.19-.18-.27-.26l.11-.29,1.18-2.82c.09-.22.21-.43.48-.32S457.28,51.77,457.19,52Z"/><path class="cls-24" d="M459.73,46.49c-.05.15-.08.22-.11.3-.39.93-.79,1.87-1.18,2.81-.09.22-.2.43-.48.32s-.22-.34-.13-.55c.41-1,.81-1.93,1.24-2.89a.56.56,0,0,1,.39-.25C459.55,46.22,459.65,46.41,459.73,46.49Z"/><path class="cls-24" d="M468.82,51.7l-.12.33c-.39.92-.78,1.83-1.16,2.75-.09.23-.2.45-.5.33s-.19-.35-.1-.57l1.2-2.85c.08-.2.21-.36.43-.27S468.76,51.62,468.82,51.7Z"/><path class="cls-24" d="M477,46.52c-.09.19-.13.31-.19.43-.36.88-.73,1.76-1.1,2.64-.1.23-.22.45-.51.32s-.18-.35-.09-.56c.4-1,.8-1.93,1.23-2.89a.53.53,0,0,1,.41-.22C476.87,46.23,477,46.43,477,46.52Z"/><path class="cls-24" d="M463,51.94c-.32.79-.66,1.58-1,2.36a3.64,3.64,0,0,1-.27.6c-.09.11-.28.15-.43.22,0-.15-.19-.34-.15-.45.41-1,.84-2,1.28-3,0-.11.18-.19.23-.24C463,51.4,463.09,51.63,463,51.94Z"/><path class="cls-24" d="M474.48,52c-.4,1-.79,1.9-1.21,2.85a.6.6,0,0,1-.4.26c-.07,0-.19-.17-.27-.25s.09-.27.13-.36c.38-.92.77-1.83,1.15-2.75.1-.23.22-.45.51-.32S474.57,51.79,474.48,52Z"/><path class="cls-24" d="M480.37,51.71c-.09.19-.13.31-.19.43-.36.88-.73,1.76-1.1,2.64-.1.23-.21.46-.51.32s-.18-.35-.09-.56c.4-1,.8-1.93,1.23-2.88a.55.55,0,0,1,.41-.23C480.2,51.43,480.29,51.63,480.37,51.71Z"/><line class="cls-25" x1="44.59" y1="85.33" x2="44.59" y2="96.14"/><line class="cls-25" x1="34.96" y1="96.14" x2="44.59" y2="96.14"/><rect class="cls-2" x="350.84" y="317.94" width="147.1" height="253.06" rx="10.14"/><text class="cls-26" transform="translate(361.47 348.32) scale(0.98 1)"><tspan class="cls-27">T</tspan><tspan x="9.79" y="0">ap he</tspan><tspan class="cls-28" x="54.58" y="0">r</tspan><tspan x="60.87" y="0">e if </tspan><tspan class="cls-29" x="0" y="22.04">y</tspan><tspan x="9.25" y="22.04">ou need any </tspan><tspan x="0" y="44.08">help!</tspan></text><path class="cls-30" d="M129.16,222.16h34.68a17.23,17.23,0,0,1,17.23,17.23v51.91a0,0,0,0,1,0,0H111.92a0,0,0,0,1,0,0V239.39A17.23,17.23,0,0,1,129.16,222.16Z"/><rect class="cls-30" x="77.4" y="423.42" width="257.71" height="69.15" rx="9.28"/><path class="cls-31" d="M192.49,256.73h37.93a11.42,11.42,0,0,1,11.42,11.42v23.15a0,0,0,0,1,0,0H181.07a0,0,0,0,1,0,0V268.16A11.42,11.42,0,0,1,192.49,256.73Z"/><rect class="cls-31" x="208.82" y="456.49" width="126.29" height="106.87" rx="19.49"/><path class="cls-32" d="M128.24,267.33l-2.35,13.5H124.3l2.35-13.5Zm-1.81,8.39-.65,0a7.76,7.76,0,0,1,.46-1.68,5.76,5.76,0,0,1,.87-1.48,4.06,4.06,0,0,1,1.29-1,3.54,3.54,0,0,1,1.72-.35,2.88,2.88,0,0,1,1.28.29,2.14,2.14,0,0,1,.8.75,3.12,3.12,0,0,1,.39,1.1,4.77,4.77,0,0,1,0,1.31l-1,6.23H130l1.05-6.26a3.16,3.16,0,0,0,0-1,1.23,1.23,0,0,0-.44-.74,1.58,1.58,0,0,0-1-.29,2.51,2.51,0,0,0-1.2.25,3.09,3.09,0,0,0-.94.75,4.44,4.44,0,0,0-.65,1A5.06,5.06,0,0,0,126.43,275.72Z"/><path class="cls-32" d="M137.94,281a3.7,3.7,0,0,1-1.69-.39,3.28,3.28,0,0,1-1.17-1,4.21,4.21,0,0,1-.65-1.46,5.37,5.37,0,0,1-.11-1.71l0-.38a6.43,6.43,0,0,1,.45-1.8,5.82,5.82,0,0,1,1-1.59,4.59,4.59,0,0,1,1.43-1.13,3.68,3.68,0,0,1,1.82-.39,3.2,3.2,0,0,1,1.65.42,2.88,2.88,0,0,1,1,1.07,4,4,0,0,1,.48,1.48,6.29,6.29,0,0,1,0,1.68l-.1.73h-6.89l.21-1.32h5.26l0-.14a3.16,3.16,0,0,0-.07-1.23,2,2,0,0,0-.58-1,1.67,1.67,0,0,0-1.12-.4,2.15,2.15,0,0,0-1.26.3,2.74,2.74,0,0,0-.9.86,4.77,4.77,0,0,0-.57,1.18,6.47,6.47,0,0,0-.28,1.24l0,.37a4.77,4.77,0,0,0,0,1.13,3.17,3.17,0,0,0,.33,1,2.07,2.07,0,0,0,.7.77,2.13,2.13,0,0,0,1.11.31,2.7,2.7,0,0,0,1.44-.35,5.05,5.05,0,0,0,1.16-.92l.91.77a4.36,4.36,0,0,1-1,1,4.1,4.1,0,0,1-1.24.61A4.76,4.76,0,0,1,137.94,281Z"/><path class="cls-32" d="M149.89,275.07l-.18,1.14H148.2a7.12,7.12,0,0,0-1,.07,4.74,4.74,0,0,0-1,.26,2.18,2.18,0,0,0-.8.56,1.64,1.64,0,0,0-.39,1,1.46,1.46,0,0,0,.11.82,1.25,1.25,0,0,0,.53.54,1.62,1.62,0,0,0,.81.2,2.8,2.8,0,0,0,1.2-.24,2.9,2.9,0,0,0,1-.7,2.46,2.46,0,0,0,.6-1.05l.58.78a3.18,3.18,0,0,1-.54,1.07,4.18,4.18,0,0,1-.89.84,4.56,4.56,0,0,1-1.11.54,3.67,3.67,0,0,1-1.17.19,3.41,3.41,0,0,1-1.45-.36,2.57,2.57,0,0,1-1-1,2.44,2.44,0,0,1-.32-1.44,2.88,2.88,0,0,1,.48-1.52,3.21,3.21,0,0,1,1.08-1,5.29,5.29,0,0,1,1.46-.53,7.51,7.51,0,0,1,1.56-.16Zm-1,4.14.79-4.92a2.13,2.13,0,0,0-.1-1,1.35,1.35,0,0,0-.54-.64,1.89,1.89,0,0,0-.94-.24,2.49,2.49,0,0,0-1,.16,2.12,2.12,0,0,0-.81.5,1.57,1.57,0,0,0-.45.84h-1.58a2.36,2.36,0,0,1,.45-1.24,3.14,3.14,0,0,1,1-.89,4.44,4.44,0,0,1,1.25-.53,5,5,0,0,1,1.3-.16,3.52,3.52,0,0,1,1.67.41,2.56,2.56,0,0,1,1.07,1.09,3,3,0,0,1,.26,1.69l-.73,4.43a7.77,7.77,0,0,0-.09,1,3.38,3.38,0,0,0,.11.95l0,.15H149a3.75,3.75,0,0,1-.09-.82A5.52,5.52,0,0,1,148.92,279.21Z"/><path class="cls-32" d="M154.8,271.32l1.35,8.17,0,1.34h-1l-1.87-9.51Zm.88,8,3.74-8h1.68l-4.81,9.51h-1.12Z"/><path class="cls-32" d="M163.77,279.75l4-8.43h1.76l-5.59,11a5.76,5.76,0,0,1-.51.9,4.94,4.94,0,0,1-.67.77,2.77,2.77,0,0,1-1.87.73l-.47,0-.47-.1.09-1.34.21,0,.21,0a2.41,2.41,0,0,0,1-.17,2.08,2.08,0,0,0,.74-.55,4,4,0,0,0,.56-.86Zm-.44-8.43,1.13,7.47.11,1.68-1.19.58-1.72-9.73Z"/><path class="cls-32" d="M199,267.33l-2.35,13.5h-1.59l2.34-13.5Z"/><path class="cls-32" d="M202.55,271.32l-1.66,9.51H199.3l1.66-9.51Zm-1.28-2.49a1,1,0,0,1,.26-.69.91.91,0,0,1,.67-.29.85.85,0,0,1,.68.26.83.83,0,0,1,.26.66.91.91,0,0,1-.94,1,.87.87,0,0,1-.93-.89Z"/><path class="cls-32" d="M211,271.32h1.46l-1.6,9.3a4.94,4.94,0,0,1-.76,2.09,4,4,0,0,1-1.54,1.41,4.43,4.43,0,0,1-2.18.47,4.11,4.11,0,0,1-1.25-.22,3.93,3.93,0,0,1-1.14-.57,3.55,3.55,0,0,1-.87-.9l.92-.95a3.21,3.21,0,0,0,1,.93,2.53,2.53,0,0,0,1.29.38,3,3,0,0,0,1.42-.3,2.54,2.54,0,0,0,1-.89,3.48,3.48,0,0,0,.52-1.36l1.24-7.38Zm-7.18,4.93,0-.19a8,8,0,0,1,.42-1.76,6.42,6.42,0,0,1,.84-1.6,3.83,3.83,0,0,1,1.29-1.15,3.45,3.45,0,0,1,1.78-.41,2.91,2.91,0,0,1,1.54.43,2.78,2.78,0,0,1,1,1.07,4.6,4.6,0,0,1,.49,1.45,7.07,7.07,0,0,1,.07,1.59l-.09.81a7.63,7.63,0,0,1-.5,1.67,5.68,5.68,0,0,1-.88,1.47,4.21,4.21,0,0,1-1.3,1,3.64,3.64,0,0,1-1.71.35,2.77,2.77,0,0,1-1.55-.49,3,3,0,0,1-.95-1.15,5.1,5.1,0,0,1-.43-1.53A7.14,7.14,0,0,1,203.86,276.25Zm1.62-.2,0,.19a5.8,5.8,0,0,0,0,1.11,4,4,0,0,0,.2,1.1,1.91,1.91,0,0,0,.57.84,1.73,1.73,0,0,0,1.07.35,2.54,2.54,0,0,0,1.33-.32,3.54,3.54,0,0,0,1.06-.91,3.83,3.83,0,0,0,.63-1.24l.34-2.14a2.64,2.64,0,0,0-.11-.93,2.27,2.27,0,0,0-.42-.8,2.13,2.13,0,0,0-.67-.56,1.87,1.87,0,0,0-.9-.22,2.36,2.36,0,0,0-1.27.28,2.78,2.78,0,0,0-.9.84,4.35,4.35,0,0,0-.58,1.16A6.44,6.44,0,0,0,205.48,276.05Z"/><path class="cls-32" d="M217.16,267.33l-2.34,13.5h-1.6l2.35-13.5Zm-1.8,8.39-.65,0a7.21,7.21,0,0,1,.45-1.68,5.76,5.76,0,0,1,.87-1.48,4.06,4.06,0,0,1,1.29-1,3.59,3.59,0,0,1,1.72-.35,2.85,2.85,0,0,1,1.28.29,2.25,2.25,0,0,1,.81.75,2.93,2.93,0,0,1,.38,1.1,4.76,4.76,0,0,1,0,1.31l-1,6.23h-1.6l1.06-6.26a3.16,3.16,0,0,0,0-1,1.33,1.33,0,0,0-.44-.74,1.6,1.6,0,0,0-1-.29,2.53,2.53,0,0,0-1.21.25,3,3,0,0,0-.93.75,3.87,3.87,0,0,0-.65,1A4.61,4.61,0,0,0,215.36,275.72Z"/><path class="cls-32" d="M228.37,271.32l-.22,1.25h-5l.22-1.25ZM225.46,269H227l-1.61,9.48a2.53,2.53,0,0,0,0,.56.68.68,0,0,0,.21.39.74.74,0,0,0,.51.15,2.34,2.34,0,0,0,.38,0l.39-.06-.12,1.34a5.78,5.78,0,0,1-.57.12,3,3,0,0,1-.59,0,1.71,1.71,0,0,1-1.14-.37,1.78,1.78,0,0,1-.56-.93,3.51,3.51,0,0,1-.09-1.22Z"/><text class="cls-4" transform="translate(274.98 169.98)">Remember to drink 2 cups <tspan x="0" y="21.6">of water</tspan></text><text class="cls-4" transform="translate(33.29 347.77)">Calendar</text><text class="cls-4" transform="translate(273.98 620.52)">Health tip</text><text class="cls-4" transform="translate(26.87 622.14)">1/6 cups</text><circle class="cls-33" cx="81.15" cy="379.27" r="5.82"/><path class="cls-34" d="M59.31,686.79H44.51a4,4,0,0,1-3.92-3.32L36.38,658a5.24,5.24,0,0,1,5.17-6.1H62.11A5.24,5.24,0,0,1,67.29,658l-4.06,25.47A4,4,0,0,1,59.31,686.79Z"/><path class="cls-35" d="M104.83,686.79H90a4,4,0,0,1-3.92-3.32L81.89,658a5.25,5.25,0,0,1,5.17-6.1h20.57a5.24,5.24,0,0,1,5.18,6.07l-4.06,25.47A4,4,0,0,1,104.83,686.79Z"/><path class="cls-35" d="M150.35,686.79h-14.8a4,4,0,0,1-3.92-3.32L127.41,658a5.25,5.25,0,0,1,5.17-6.1h20.57a5.25,5.25,0,0,1,5.18,6.07l-4.06,25.47A4,4,0,0,1,150.35,686.79Z"/><path class="cls-35" d="M59.31,731.69H44.51a4,4,0,0,1-3.92-3.33l-4.21-25.47a5.23,5.23,0,0,1,5.17-6.09H62.11a5.24,5.24,0,0,1,5.18,6.06l-4.06,25.48A4,4,0,0,1,59.31,731.69Z"/><path class="cls-35" d="M104.83,731.69H90a4,4,0,0,1-3.92-3.33l-4.22-25.47a5.24,5.24,0,0,1,5.17-6.09h20.57a5.24,5.24,0,0,1,5.18,6.06l-4.06,25.48A4,4,0,0,1,104.83,731.69Z"/><path class="cls-35" d="M150.35,731.69h-14.8a4,4,0,0,1-3.92-3.33l-4.22-25.47a5.24,5.24,0,0,1,5.17-6.09h20.57a5.25,5.25,0,0,1,5.18,6.06l-4.06,25.48A4,4,0,0,1,150.35,731.69Z"/><path class="cls-32" d="M86.05,443.63h.11a4.91,4.91,0,0,0,1.69-.27,3.55,3.55,0,0,0,1.26-.79,3.82,3.82,0,0,0,.86-1.24,6,6,0,0,0,.47-1.62l.22-1.64a5.32,5.32,0,0,0,0-.91,4,4,0,0,0-.18-1,1.89,1.89,0,0,0-.47-.79,1.26,1.26,0,0,0-.87-.33,1.87,1.87,0,0,0-.93.2,2.3,2.3,0,0,0-.69.59,2.86,2.86,0,0,0-.46.84,3.32,3.32,0,0,0-.21.92,3.66,3.66,0,0,0,0,.81,2.56,2.56,0,0,0,.21.79,1.59,1.59,0,0,0,.47.61,1.38,1.38,0,0,0,.79.25,2,2,0,0,0,.88-.17,2.49,2.49,0,0,0,.75-.49,3.07,3.07,0,0,0,.57-.72,3.13,3.13,0,0,0,.33-.83h.63a3.92,3.92,0,0,1-.36,1.24,4,4,0,0,1-.75,1.08,3.52,3.52,0,0,1-1.05.76,2.76,2.76,0,0,1-1.27.26,2.34,2.34,0,0,1-2-1.14,3.51,3.51,0,0,1-.42-1.12,4.75,4.75,0,0,1-.06-1.25,4.91,4.91,0,0,1,.35-1.43,4.4,4.4,0,0,1,.75-1.21,3.49,3.49,0,0,1,1.12-.82,3.27,3.27,0,0,1,1.45-.28,2.7,2.7,0,0,1,1.45.42,2.64,2.64,0,0,1,.88,1,4.41,4.41,0,0,1,.39,1.38,6.11,6.11,0,0,1,0,1.48l-.06.5a11.66,11.66,0,0,1-.41,1.92,7.84,7.84,0,0,1-.75,1.66,5.39,5.39,0,0,1-1.12,1.3,4.84,4.84,0,0,1-1.53.85,6,6,0,0,1-2,.31h-.17Z"/><path class="cls-32" d="M92.9,444.06a.85.85,0,0,1,.23-.6.8.8,0,0,1,.59-.25.76.76,0,0,1,.59.22.75.75,0,0,1,.23.58.85.85,0,0,1-.23.6.88.88,0,0,1-.59.24.85.85,0,0,1-.59-.21A.75.75,0,0,1,92.9,444.06ZM94,437.59a.82.82,0,0,1,.82-.85.8.8,0,0,1,.59.22.76.76,0,0,1,.22.59.8.8,0,0,1-.82.83.76.76,0,0,1-.81-.79Z"/><path class="cls-32" d="M99,439.87l.13-.81h1a4.56,4.56,0,0,1,1.19.18,3,3,0,0,1,1,.48,2,2,0,0,1,.65.82,2.46,2.46,0,0,1,.16,1.19,3.48,3.48,0,0,1-.36,1.32,3.21,3.21,0,0,1-.8,1,3.66,3.66,0,0,1-1.13.63,4,4,0,0,1-1.35.2,3.57,3.57,0,0,1-1.21-.23,2.88,2.88,0,0,1-1-.59,2.41,2.41,0,0,1-.6-.93,3,3,0,0,1-.18-1.22h1.32a1.84,1.84,0,0,0,.15,1,1.46,1.46,0,0,0,.58.65,1.92,1.92,0,0,0,.94.25,2.32,2.32,0,0,0,1.13-.24,2,2,0,0,0,.78-.71,2.39,2.39,0,0,0,.36-1.09,1.81,1.81,0,0,0-.15-1,1.42,1.42,0,0,0-.65-.63,2.39,2.39,0,0,0-1-.22Zm.18-1.12.88,0a3.09,3.09,0,0,0,1.11-.22,1.93,1.93,0,0,0,1.27-1.67,2.07,2.07,0,0,0-.09-.95,1.32,1.32,0,0,0-.5-.64A1.67,1.67,0,0,0,101,435a2.25,2.25,0,0,0-1,.22,2,2,0,0,0-.74.65,2.19,2.19,0,0,0-.37,1H97.52a3.13,3.13,0,0,1,.59-1.57,3.5,3.5,0,0,1,1.28-1,3.67,3.67,0,0,1,1.65-.34,3.1,3.1,0,0,1,1.53.38,2.37,2.37,0,0,1,1,1,3,3,0,0,1,.27,1.56,2.46,2.46,0,0,1-.38,1.16,2.92,2.92,0,0,1-.84.84,4,4,0,0,1-1.11.5,4.14,4.14,0,0,1-1.2.17H99.08Z"/><path class="cls-32" d="M112,438.57l-.25,1.62a11.11,11.11,0,0,1-.38,1.71,6,6,0,0,1-.7,1.54,3.46,3.46,0,0,1-1.16,1.09,3.33,3.33,0,0,1-1.73.37,2.74,2.74,0,0,1-1.3-.3,2.25,2.25,0,0,1-.81-.78,3.2,3.2,0,0,1-.42-1.08,5.74,5.74,0,0,1-.11-1.26,10.86,10.86,0,0,1,.08-1.28l.24-1.63a10.19,10.19,0,0,1,.39-1.7,5.61,5.61,0,0,1,.71-1.5,3.16,3.16,0,0,1,2.87-1.43,2.77,2.77,0,0,1,1.3.3,2,2,0,0,1,.81.74A3.42,3.42,0,0,1,112,436a6.31,6.31,0,0,1,.12,1.25A10.86,10.86,0,0,1,112,438.57Zm-1.6,1.85.31-2.09c0-.24.06-.51.08-.8a6.17,6.17,0,0,0,0-.86,2.53,2.53,0,0,0-.18-.79,1.3,1.3,0,0,0-.44-.59,1.46,1.46,0,0,0-.8-.25,1.8,1.8,0,0,0-1.14.28,2.37,2.37,0,0,0-.74.8,5,5,0,0,0-.43,1.09c-.1.39-.18.77-.24,1.13l-.3,2.08c0,.24-.06.5-.08.8a6.46,6.46,0,0,0,0,.88,3.06,3.06,0,0,0,.17.82,1.28,1.28,0,0,0,1.24.87,1.85,1.85,0,0,0,1.15-.28,2.35,2.35,0,0,0,.73-.83,4.73,4.73,0,0,0,.43-1.12A11.12,11.12,0,0,0,110.41,440.42Z"/><path class="cls-32" d="M118.49,435.12l-5.07,9.63H112l5.8-10.66h.94Zm1.7,5.69L120,442h-5.82l.2-1.15Zm-.49,3.94-1.76-9.8.14-.86H119l2.1,10.66Z"/><path class="cls-32" d="M124.32,434.09h1.18l-.94,6.55-.72,4.11h-1.38Zm.46,0h1.27l1.89,8.68,4.88-8.68h1.41l-6.06,10.66h-1Zm8.66,0h1.18l-1.85,10.66H131.4l.73-4.23Z"/><path class="cls-32" d="M140.7,434.09h1.18l-.94,6.55-.71,4.11h-1.38Zm.46,0h1.28l1.88,8.68,4.88-8.68h1.41l-6.06,10.66h-1Zm8.66,0H151l-1.86,10.66h-1.37l.74-4.23Z"/><path class="cls-32" d="M154.71,444.9a3.13,3.13,0,0,1-1.42-.33,2.62,2.62,0,0,1-1-.84,3.5,3.5,0,0,1-.54-1.21,4.5,4.5,0,0,1-.09-1.43l0-.31a5.32,5.32,0,0,1,.37-1.5,5,5,0,0,1,.8-1.33,3.73,3.73,0,0,1,1.19-.94,3.2,3.2,0,0,1,1.52-.33A2.76,2.76,0,0,1,157,437a2.61,2.61,0,0,1,.86.89,3.61,3.61,0,0,1,.4,1.24,5.46,5.46,0,0,1,0,1.4l-.08.61h-5.75l.17-1.1H157l0-.11a2.48,2.48,0,0,0-.06-1,1.52,1.52,0,0,0-.48-.81,1.38,1.38,0,0,0-.93-.33,1.78,1.78,0,0,0-1,.24,2.34,2.34,0,0,0-.75.72,3.85,3.85,0,0,0-.47,1,5,5,0,0,0-.24,1l0,.3a3.78,3.78,0,0,0,0,.95,2.69,2.69,0,0,0,.28.87,1.67,1.67,0,0,0,1.5.89,2.18,2.18,0,0,0,1.2-.29,4,4,0,0,0,1-.77l.76.65a3.68,3.68,0,0,1-.82.85,3.47,3.47,0,0,1-1,.51A3.85,3.85,0,0,1,154.71,444.9Z"/><path class="cls-32" d="M162.42,444.9a3.12,3.12,0,0,1-1.41-.33,2.58,2.58,0,0,1-1-.84,3.31,3.31,0,0,1-.53-1.21,4.5,4.5,0,0,1-.1-1.43l0-.31a5.32,5.32,0,0,1,.37-1.5,5,5,0,0,1,.8-1.33,3.73,3.73,0,0,1,1.19-.94,3.2,3.2,0,0,1,1.52-.33,2.76,2.76,0,0,1,1.38.35,2.61,2.61,0,0,1,.86.89,3.63,3.63,0,0,1,.41,1.24,6,6,0,0,1,0,1.4l-.08.61h-5.75l.18-1.1h4.38l0-.11a2.67,2.67,0,0,0-.05-1,1.66,1.66,0,0,0-.48-.81,1.43,1.43,0,0,0-.94-.33,1.82,1.82,0,0,0-1.05.24,2.34,2.34,0,0,0-.75.72,3.85,3.85,0,0,0-.47,1,5,5,0,0,0-.24,1l0,.3a3.78,3.78,0,0,0,0,.95,2.69,2.69,0,0,0,.28.87,1.76,1.76,0,0,0,.58.63,1.7,1.7,0,0,0,.93.26,2.23,2.23,0,0,0,1.2-.29,4.38,4.38,0,0,0,1-.77l.75.65a3.49,3.49,0,0,1-.82.85,3.36,3.36,0,0,1-1,.51A3.85,3.85,0,0,1,162.42,444.9Z"/><path class="cls-32" d="M171.38,436.83l-.18,1H167l.18-1ZM169,434.9h1.32l-1.34,7.91a1.74,1.74,0,0,0,0,.46.54.54,0,0,0,.18.32.62.62,0,0,0,.42.13l.32,0,.32-.05-.1,1.11a3.39,3.39,0,0,1-.48.1l-.48,0a1.35,1.35,0,0,1-1.42-1.09,2.86,2.86,0,0,1-.08-1Z"/><path class="cls-32" d="M174.35,436.83,173,444.75h-1.32l1.37-7.92Zm-1.06-2.08a.84.84,0,0,1,.21-.58.75.75,0,0,1,.56-.23.74.74,0,0,1,.79.77.77.77,0,0,1-.23.56.84.84,0,0,1-.56.23.75.75,0,0,1-.55-.21A.69.69,0,0,1,173.29,434.75Z"/><path class="cls-32" d="M177.47,438.6l-1.07,6.15h-1.33l1.38-7.92h1.25Zm-.62,1.89h-.54a6.32,6.32,0,0,1,.38-1.4,4.42,4.42,0,0,1,.72-1.23,3.24,3.24,0,0,1,1.08-.87,3,3,0,0,1,1.43-.3,2.28,2.28,0,0,1,1.07.25,1.74,1.74,0,0,1,.67.62,2.45,2.45,0,0,1,.32.92,4.37,4.37,0,0,1,0,1.09l-.87,5.19H179.8l.88-5.21a2.66,2.66,0,0,0,0-.86,1,1,0,0,0-.36-.62,1.34,1.34,0,0,0-.81-.24,2.11,2.11,0,0,0-1,.21,2.54,2.54,0,0,0-.77.62,3.29,3.29,0,0,0-.55.87A4.31,4.31,0,0,0,176.85,440.49Z"/><path class="cls-32" d="M189.46,436.83h1.21l-1.32,7.75a4.13,4.13,0,0,1-.64,1.74,3.35,3.35,0,0,1-1.28,1.17,3.79,3.79,0,0,1-2.86.22,3.85,3.85,0,0,1-.95-.48,2.74,2.74,0,0,1-.72-.76l.76-.79a2.72,2.72,0,0,0,.81.78,2.2,2.2,0,0,0,1.08.32,2.54,2.54,0,0,0,1.19-.25,2.21,2.21,0,0,0,.84-.74,2.79,2.79,0,0,0,.43-1.14l1-6.14Zm-6,4.11,0-.16a7.1,7.1,0,0,1,.34-1.47,5.43,5.43,0,0,1,.7-1.33,3.29,3.29,0,0,1,1.08-1,3,3,0,0,1,1.49-.35,2.51,2.51,0,0,1,1.28.36,2.56,2.56,0,0,1,.81.89,3.81,3.81,0,0,1,.4,1.22,5.84,5.84,0,0,1,.06,1.32l-.08.68a6.48,6.48,0,0,1-.41,1.39,4.57,4.57,0,0,1-.74,1.22,3.22,3.22,0,0,1-1.08.86,3,3,0,0,1-1.42.3,2.25,2.25,0,0,1-1.29-.41,2.4,2.4,0,0,1-.79-1,3.87,3.87,0,0,1-.36-1.27A6.6,6.6,0,0,1,183.47,440.94Zm1.36-.17,0,.16a4.64,4.64,0,0,0,0,.92,3.06,3.06,0,0,0,.17.92,1.48,1.48,0,0,0,.47.7,1.41,1.41,0,0,0,.89.29,2.13,2.13,0,0,0,1.11-.27,2.78,2.78,0,0,0,.88-.76,3,3,0,0,0,.53-1l.28-1.78a2,2,0,0,0-.09-.78,1.9,1.9,0,0,0-.35-.66,1.59,1.59,0,0,0-.56-.47,1.54,1.54,0,0,0-.75-.18,1.91,1.91,0,0,0-1.06.23,2.39,2.39,0,0,0-.75.7,4.18,4.18,0,0,0-.48,1A5,5,0,0,0,184.83,440.77Z"/><path class="cls-32" d="M197,436.83l.55,6.67-.11,1.25h-.86l-.86-7.92Zm.21,6.45,3.08-6.45h.92l-.43,1.37-3.12,6.55h-.89Zm4.15-6.45.83,6.49,0,1.43h-.81l-.93-6.72.06-1.2Zm.59,6.47,2.7-6.47H206l-3.61,7.92h-.93Z"/><path class="cls-32" d="M208.71,436.83l-1.37,7.92H206l1.38-7.92Zm-1.06-2.08a.81.81,0,0,1,.22-.58.74.74,0,0,1,.56-.23.72.72,0,0,1,.78.77.76.76,0,0,1-.22.56.86.86,0,0,1-.56.23.78.78,0,0,1-.56-.21A.72.72,0,0,1,207.65,434.75Z"/><path class="cls-32" d="M214.05,436.83l-.19,1H209.7l.18-1Zm-2.43-1.93h1.32l-1.34,7.91a1.74,1.74,0,0,0,0,.46.6.6,0,0,0,.18.32.62.62,0,0,0,.42.13l.32,0,.32-.05-.09,1.11a4.1,4.1,0,0,1-.48.1l-.49,0a1.44,1.44,0,0,1-.95-.31,1.49,1.49,0,0,1-.47-.78,2.87,2.87,0,0,1-.07-1Z"/><path class="cls-32" d="M217.48,433.5l-1.95,11.25H214.2l2-11.25Zm-1.5,7h-.54a6.29,6.29,0,0,1,.37-1.4,4.71,4.71,0,0,1,.73-1.23,3.24,3.24,0,0,1,1.08-.87,3,3,0,0,1,1.43-.3,2.24,2.24,0,0,1,1.06.25,1.67,1.67,0,0,1,.67.62,2.46,2.46,0,0,1,.33.92,4,4,0,0,1,0,1.09l-.86,5.19h-1.34l.88-5.21a2.42,2.42,0,0,0,0-.86,1.1,1.1,0,0,0-.37-.62,1.3,1.3,0,0,0-.81-.24,2.07,2.07,0,0,0-1,.21,2.46,2.46,0,0,0-.78.62,3.53,3.53,0,0,0-.54.87A3.85,3.85,0,0,0,216,440.49Z"/><path class="cls-32" d="M234.81,434.09l-.21,1.16h-8l.2-1.16Zm-3.33,0-1.84,10.66h-1.36l1.85-10.66Z"/><path class="cls-32" d="M237.56,433.5l-1.95,11.25h-1.33l2-11.25Zm-1.5,7h-.54a5.82,5.82,0,0,1,.38-1.4,4.42,4.42,0,0,1,.72-1.23,3.24,3.24,0,0,1,1.08-.87,3,3,0,0,1,1.43-.3,2.28,2.28,0,0,1,1.07.25,1.74,1.74,0,0,1,.67.62,2.45,2.45,0,0,1,.32.92,4,4,0,0,1,0,1.09l-.86,5.19H239l.88-5.21a2.66,2.66,0,0,0,0-.86,1.08,1.08,0,0,0-.36-.62,1.34,1.34,0,0,0-.81-.24,2.11,2.11,0,0,0-1,.21,2.7,2.7,0,0,0-.78.62,3.53,3.53,0,0,0-.54.87A4.31,4.31,0,0,0,236.06,440.49Z"/><path class="cls-32" d="M245.65,444.9a3.12,3.12,0,0,1-1.41-.33,2.55,2.55,0,0,1-1-.84,3.17,3.17,0,0,1-.54-1.21,4.5,4.5,0,0,1-.1-1.43l0-.31a5,5,0,0,1,.38-1.5,4.71,4.71,0,0,1,.8-1.33A3.69,3.69,0,0,1,245,437a3.23,3.23,0,0,1,1.52-.33,2.73,2.73,0,0,1,1.38.35,2.52,2.52,0,0,1,.86.89,3.63,3.63,0,0,1,.41,1.24,5.46,5.46,0,0,1,0,1.4l-.08.61h-5.75l.18-1.1h4.39l0-.11a2.48,2.48,0,0,0-.06-1,1.66,1.66,0,0,0-.48-.81,1.39,1.39,0,0,0-.94-.33,1.82,1.82,0,0,0-1,.24,2.34,2.34,0,0,0-.75.72,4.22,4.22,0,0,0-.47,1,6.76,6.76,0,0,0-.24,1l0,.3a3.78,3.78,0,0,0,0,.95,3,3,0,0,0,.28.87,1.7,1.7,0,0,0,.59.63,1.66,1.66,0,0,0,.92.26,2.23,2.23,0,0,0,1.2-.29,4.38,4.38,0,0,0,1-.77l.75.65a3.49,3.49,0,0,1-.82.85,3.36,3.36,0,0,1-1,.51A3.76,3.76,0,0,1,245.65,444.9Z"/><path class="cls-32" d="M258.53,440.58h-2.86l.2-1.15h2.69a3.3,3.3,0,0,0,1.27-.24,2.2,2.2,0,0,0,1.41-1.89,1.9,1.9,0,0,0-.12-1.08,1.41,1.41,0,0,0-.63-.69,2.27,2.27,0,0,0-1.05-.28h-2.52l-1.65,9.5h-1.38l1.85-10.66h3.74a3.83,3.83,0,0,1,1.69.4,2.59,2.59,0,0,1,1.14,1.08,2.8,2.8,0,0,1,.31,1.7,3.35,3.35,0,0,1-.67,1.86,3.43,3.43,0,0,1-1.47,1.09A5.4,5.4,0,0,1,258.53,440.58Z"/><path class="cls-32" d="M263.12,440.92l0-.17a5.4,5.4,0,0,1,.4-1.53,4.66,4.66,0,0,1,.82-1.32,3.75,3.75,0,0,1,1.22-.91,3.5,3.5,0,0,1,1.57-.31,2.94,2.94,0,0,1,1.43.36,2.79,2.79,0,0,1,1,.91,3.71,3.71,0,0,1,.52,1.28,4.8,4.8,0,0,1,.07,1.47v.16a5.39,5.39,0,0,1-.41,1.54,4.88,4.88,0,0,1-.83,1.3,3.87,3.87,0,0,1-1.22.9,3.48,3.48,0,0,1-1.56.3,2.94,2.94,0,0,1-1.43-.36,2.76,2.76,0,0,1-1-.9,3.85,3.85,0,0,1-.51-1.27A4.67,4.67,0,0,1,263.12,440.92Zm1.34-.17,0,.18a5.13,5.13,0,0,0,0,1,3,3,0,0,0,.23.92,1.74,1.74,0,0,0,.55.7,1.58,1.58,0,0,0,.93.28,2.16,2.16,0,0,0,1.07-.23,2.48,2.48,0,0,0,.79-.69,4,4,0,0,0,.52-1,5,5,0,0,0,.26-1.05v-.16a3.93,3.93,0,0,0,0-1,2.89,2.89,0,0,0-.23-.93,1.78,1.78,0,0,0-.54-.72,1.59,1.59,0,0,0-.94-.28A2,2,0,0,0,266,438a2.64,2.64,0,0,0-.79.7,4.27,4.27,0,0,0-.51,1A4.74,4.74,0,0,0,264.46,440.75Z"/><path class="cls-32" d="M273.5,438.43l-1.63,9.37h-1.33l1.9-11h1.22Zm4.76,2.25v.15a7,7,0,0,1-.35,1.45,5.38,5.38,0,0,1-.68,1.33,3.35,3.35,0,0,1-1.06,1,2.81,2.81,0,0,1-1.47.34,2.55,2.55,0,0,1-1.27-.33,2.5,2.5,0,0,1-.85-.83,3.63,3.63,0,0,1-.45-1.15,5.27,5.27,0,0,1-.1-1.32l.11-.81a5.79,5.79,0,0,1,.42-1.4,5,5,0,0,1,.76-1.24,3.38,3.38,0,0,1,1.09-.86,3,3,0,0,1,1.44-.29,2.4,2.4,0,0,1,1.32.39,2.44,2.44,0,0,1,.78,1,3.89,3.89,0,0,1,.33,1.29A6.18,6.18,0,0,1,278.26,440.68Zm-1.34.15,0-.16a5.73,5.73,0,0,0,0-.93,2.74,2.74,0,0,0-.18-.92,1.62,1.62,0,0,0-.49-.71,1.39,1.39,0,0,0-.9-.29,2.05,2.05,0,0,0-.86.15,2.36,2.36,0,0,0-.74.46,2.82,2.82,0,0,0-.56.68,2.88,2.88,0,0,0-.35.81l-.31,1.91a2,2,0,0,0,.86,1.68,1.75,1.75,0,0,0,.93.28,2,2,0,0,0,1.06-.24,2.41,2.41,0,0,0,.76-.7,4.09,4.09,0,0,0,.49-1A5.81,5.81,0,0,0,276.92,440.83Z"/><path class="cls-32" d="M282.6,444.9a3.12,3.12,0,0,1-1.41-.33,2.55,2.55,0,0,1-1-.84,3.33,3.33,0,0,1-.54-1.21,4.5,4.5,0,0,1-.1-1.43l0-.31a5.34,5.34,0,0,1,.38-1.5,4.71,4.71,0,0,1,.8-1.33A3.69,3.69,0,0,1,282,437a3.23,3.23,0,0,1,1.52-.33,2.73,2.73,0,0,1,1.38.35,2.52,2.52,0,0,1,.86.89,3.63,3.63,0,0,1,.41,1.24,5.46,5.46,0,0,1,0,1.4l-.08.61h-5.75l.18-1.1h4.39l0-.11a2.48,2.48,0,0,0-.06-1,1.66,1.66,0,0,0-.48-.81,1.38,1.38,0,0,0-.93-.33,1.83,1.83,0,0,0-1.06.24,2.34,2.34,0,0,0-.75.72,4.22,4.22,0,0,0-.47,1,6.76,6.76,0,0,0-.24,1l0,.3a3.78,3.78,0,0,0,0,.95,2.7,2.7,0,0,0,.29.87,1.6,1.6,0,0,0,.58.63,1.66,1.66,0,0,0,.92.26,2.23,2.23,0,0,0,1.2-.29,4.38,4.38,0,0,0,1-.77l.75.65a3.49,3.49,0,0,1-.82.85,3.25,3.25,0,0,1-1,.51A3.76,3.76,0,0,1,282.6,444.9Z"/><path class="cls-32" d="M226.06,475.06a1.38,1.38,0,0,0-.1-.81,1.43,1.43,0,0,0-.46-.55,2.86,2.86,0,0,0-.69-.37c-.26-.11-.51-.2-.76-.29a9.2,9.2,0,0,1-1.09-.44,4.86,4.86,0,0,1-1-.62,2.51,2.51,0,0,1-.66-.86,2.32,2.32,0,0,1-.19-1.17,2.82,2.82,0,0,1,.42-1.3,3.22,3.22,0,0,1,.91-.93,4,4,0,0,1,1.23-.56,4.69,4.69,0,0,1,1.34-.17,3.92,3.92,0,0,1,1.7.42,2.89,2.89,0,0,1,1.53,2.81h-1.38a2.25,2.25,0,0,0-.16-1.1,1.56,1.56,0,0,0-.66-.71,2.37,2.37,0,0,0-1.09-.26,2.94,2.94,0,0,0-1.11.18,2.05,2.05,0,0,0-.9.59,1.85,1.85,0,0,0-.45,1,1.13,1.13,0,0,0,.12.74,1.62,1.62,0,0,0,.49.52,3.66,3.66,0,0,0,.68.36c.25.09.48.18.71.25a9.28,9.28,0,0,1,1.13.47,4.34,4.34,0,0,1,1,.64,2.42,2.42,0,0,1,.65.9,2.5,2.5,0,0,1,.16,1.22,2.69,2.69,0,0,1-.43,1.32,2.82,2.82,0,0,1-.94.91,4.36,4.36,0,0,1-1.25.53,5.28,5.28,0,0,1-1.37.15,4.09,4.09,0,0,1-1.36-.23,3.6,3.6,0,0,1-1.13-.64,2.71,2.71,0,0,1-.75-1,2.93,2.93,0,0,1-.23-1.35h1.37a2.15,2.15,0,0,0,.11.9,1.67,1.67,0,0,0,.44.65,2,2,0,0,0,.71.4,3.14,3.14,0,0,0,.9.14,3.33,3.33,0,0,0,1.13-.16,2.41,2.41,0,0,0,.94-.56A1.74,1.74,0,0,0,226.06,475.06Z"/><path class="cls-32" d="M231.82,476.84a1.91,1.91,0,0,0,.9-.18,2.13,2.13,0,0,0,.72-.54,2.22,2.22,0,0,0,.41-.81h1.26a2.75,2.75,0,0,1-.62,1.4,3.51,3.51,0,0,1-2.72,1.25,3,3,0,0,1-1.42-.35,2.67,2.67,0,0,1-.94-.89,3.7,3.7,0,0,1-.48-1.25,5,5,0,0,1-.06-1.44l0-.32a5.57,5.57,0,0,1,.39-1.52,4.54,4.54,0,0,1,.8-1.28,3.66,3.66,0,0,1,1.19-.87,3.55,3.55,0,0,1,1.55-.3,2.85,2.85,0,0,1,1.45.39,2.69,2.69,0,0,1,.95,1,3.14,3.14,0,0,1,.34,1.46h-1.25a2,2,0,0,0-.18-.86,1.55,1.55,0,0,0-.52-.64,1.53,1.53,0,0,0-.85-.26,2,2,0,0,0-1.06.23,2.29,2.29,0,0,0-.76.66,3.44,3.44,0,0,0-.49.93,5.43,5.43,0,0,0-.25,1l0,.31a5.11,5.11,0,0,0,0,1,2.69,2.69,0,0,0,.2.91,1.55,1.55,0,0,0,.52.69A1.6,1.6,0,0,0,231.82,476.84Z"/><path class="cls-32" d="M239.42,466.55l-2,11.25h-1.32l2-11.25Zm-1.5,7h-.54a5.79,5.79,0,0,1,.37-1.4,4.71,4.71,0,0,1,.73-1.23,3.31,3.31,0,0,1,1.07-.87,3,3,0,0,1,1.44-.3,2.24,2.24,0,0,1,1.06.25,1.67,1.67,0,0,1,.67.62,2.45,2.45,0,0,1,.32.92,3.94,3.94,0,0,1,0,1.09l-.87,5.19h-1.33l.88-5.21a3,3,0,0,0,0-.86,1.1,1.1,0,0,0-.37-.62,1.34,1.34,0,0,0-.81-.24,2.07,2.07,0,0,0-1,.21,2.46,2.46,0,0,0-.78.62,3.53,3.53,0,0,0-.54.87A3.85,3.85,0,0,0,237.92,473.54Z"/><path class="cls-32" d="M244.49,474l0-.17a5.4,5.4,0,0,1,.4-1.53,4.45,4.45,0,0,1,.82-1.32A3.65,3.65,0,0,1,247,470a3.46,3.46,0,0,1,1.56-.31,3,3,0,0,1,1.44.36,2.88,2.88,0,0,1,1,.91,3.71,3.71,0,0,1,.52,1.28,4.79,4.79,0,0,1,.07,1.47v.16a5.74,5.74,0,0,1-.41,1.54,4.68,4.68,0,0,1-.84,1.3,3.83,3.83,0,0,1-1.21.9,3.62,3.62,0,0,1-1.56.3,2.91,2.91,0,0,1-1.43-.36,2.59,2.59,0,0,1-1-.9,3.46,3.46,0,0,1-.51-1.27A5,5,0,0,1,244.49,474Zm1.34-.17V474a4.4,4.4,0,0,0,0,1,3,3,0,0,0,.23.92,1.74,1.74,0,0,0,.55.7,1.58,1.58,0,0,0,.93.28,2.19,2.19,0,0,0,1.07-.23,2.45,2.45,0,0,0,.78-.69,3.71,3.71,0,0,0,.52-1,4.48,4.48,0,0,0,.26-1l0-.16a5.24,5.24,0,0,0,0-1,3.17,3.17,0,0,0-.23-.93,1.8,1.8,0,0,0-.55-.72,1.58,1.58,0,0,0-.93-.28,2,2,0,0,0-1.07.23,2.64,2.64,0,0,0-.79.7,4.31,4.31,0,0,0-.52,1A6.19,6.19,0,0,0,245.83,473.8Z"/><path class="cls-32" d="M252.79,474l0-.17a5.75,5.75,0,0,1,.4-1.53A4.69,4.69,0,0,1,254,471a3.71,3.71,0,0,1,1.21-.91,3.53,3.53,0,0,1,1.57-.31,2.91,2.91,0,0,1,1.43.36,2.82,2.82,0,0,1,1,.91,3.71,3.71,0,0,1,.52,1.28,5.12,5.12,0,0,1,.07,1.47l0,.16a5.39,5.39,0,0,1-.41,1.54,4.65,4.65,0,0,1-.83,1.3,3.76,3.76,0,0,1-1.22.9,3.56,3.56,0,0,1-1.56.3,2.9,2.9,0,0,1-1.42-.36,2.59,2.59,0,0,1-1-.9,3.66,3.66,0,0,1-.52-1.27A5.37,5.37,0,0,1,252.79,474Zm1.34-.17V474a4.39,4.39,0,0,0,0,1,3.36,3.36,0,0,0,.24.92,1.66,1.66,0,0,0,.55.7,1.54,1.54,0,0,0,.93.28,2.12,2.12,0,0,0,1.06-.23,2.48,2.48,0,0,0,.79-.69,3.71,3.71,0,0,0,.52-1,4.48,4.48,0,0,0,.26-1l0-.16a5.24,5.24,0,0,0,0-1,3.17,3.17,0,0,0-.23-.93,1.8,1.8,0,0,0-.55-.72,1.58,1.58,0,0,0-.93-.28,2,2,0,0,0-1.07.23,2.53,2.53,0,0,0-.79.7,3.94,3.94,0,0,0-.52,1A5.36,5.36,0,0,0,254.13,473.8Z"/><path class="cls-32" d="M264.14,466.55l-2,11.25h-1.32l1.95-11.25Z"/></g></svg>