<?xml version="1.0" encoding="utf-8"?>
<!-- Generator: Adobe Illustrator 25.0.0, SVG Export Plug-In . SVG Version: 6.00 Build 0)  -->
<svg version="1.1" id="Layer_1" xmlns="http://www.w3.org/2000/svg" xmlns:xlink="http://www.w3.org/1999/xlink" x="0px" y="0px"
	 viewBox="0 0 800 800" style="enable-background:new 0 0 800 800;" xml:space="preserve">
<style type="text/css">
	.st0{fill:#FFFFFF;}
</style>
<path class="st0" d="M250,150C250,67.2,317.2,0,400,0s150,67.2,150,150v200c0,82.8-67.2,150-150,150s-150-67.2-150-150V150z"/>
<path class="st0" d="M450,696.5V800H350V696.5C180.4,672.2,50,526.3,50,350v-50h100v50c0,138.1,111.9,250,250,250
	c138.1,0,250-111.9,250-250v-50h100v50C750,526.3,619.6,672.2,450,696.5z"/>
</svg>
