<?xml version="1.0" encoding="utf-8"?>
<!-- Generator: Adobe Illustrator 25.0.0, SVG Export Plug-In . SVG Version: 6.00 Build 0)  -->
<svg version="1.1" id="Layer_1" xmlns="http://www.w3.org/2000/svg" xmlns:xlink="http://www.w3.org/1999/xlink" x="0px" y="0px"
	 viewBox="0 0 800 800" style="enable-background:new 0 0 800 800;" xml:space="preserve">
<style type="text/css">
	.st0{fill:none;stroke:#FFFFFF;stroke-width:79.3567;stroke-linecap:round;stroke-linejoin:round;stroke-miterlimit:133.3333;}
</style>
<path class="st0" d="M400,122.2c56.8,0,111.3,20.1,151.5,55.8c40.2,35.7,62.8,84.2,62.8,134.7c0,78.1,17.7,136.6,40.6,179.7
	c29.3,55,43.9,82.5,43.1,88.7c-0.9,7.3-2.2,9.3-8.2,13.6c-5.2,3.7-30.8,3.7-82.2,3.7H192.5c-51.4,0-77,0-82.2-3.7
	c-6-4.3-7.2-6.3-8.2-13.6c-0.8-6.3,13.8-33.8,43.1-88.7c22.9-43,40.6-101.5,40.6-179.7c0-50.5,22.6-99,62.8-134.7
	C288.7,142.3,343.2,122.2,400,122.2z M400,122.2V42.9 M295,717.4c28,24.7,64.8,39.7,105.1,39.7c40.3,0,77.1-15,105.1-39.7"/>
</svg>
