<svg width="262" height="448" viewBox="0 0 262 448" fill="none" xmlns="http://www.w3.org/2000/svg">
<g clip-path="url(#clip0_33_87)">
<path d="M62.74 154.93H50.09C45.8816 154.93 42.47 158.342 42.47 162.55V198.74C42.47 202.948 45.8816 206.36 50.09 206.36H62.74C66.9484 206.36 70.36 202.948 70.36 198.74V162.55C70.36 158.342 66.9484 154.93 62.74 154.93Z" fill="#E67824" stroke="#1D1D1B" stroke-width="2.69" stroke-miterlimit="10"/>
<path d="M211.02 243.54H166.27V270.63H211.02V243.54Z" fill="#FAB432" stroke="#1D1D1B" stroke-width="2.69" stroke-miterlimit="10"/>
<path d="M298.91 109.61H86.46C73.8292 109.61 63.59 119.849 63.59 132.48V226.2C63.59 238.831 73.8292 249.07 86.46 249.07H298.91C311.541 249.07 321.78 238.831 321.78 226.2V132.48C321.78 119.849 311.541 109.61 298.91 109.61Z" fill="#FAB432" stroke="#1D1D1B" stroke-width="2.69" stroke-miterlimit="10"/>
<path d="M292.37 124.82H92.99C84.1258 124.82 76.94 132.006 76.94 140.87V217.8C76.94 226.664 84.1258 233.85 92.99 233.85H292.37C301.234 233.85 308.42 226.664 308.42 217.8V140.87C308.42 132.006 301.234 124.82 292.37 124.82Z" fill="white" stroke="#1D1D1B" stroke-width="2.83" stroke-miterlimit="10"/>
<path d="M154.39 172.95C160.946 172.95 166.26 165.469 166.26 156.24C166.26 147.011 160.946 139.53 154.39 139.53C147.834 139.53 142.52 147.011 142.52 156.24C142.52 165.469 147.834 172.95 154.39 172.95Z" fill="#1D1D1B"/>
<path d="M230.97 172.95C237.526 172.95 242.84 165.469 242.84 156.24C242.84 147.011 237.526 139.53 230.97 139.53C224.414 139.53 219.1 147.011 219.1 156.24C219.1 165.469 224.414 172.95 230.97 172.95Z" fill="#1D1D1B"/>
<path d="M179 179.28C179 179.28 190.75 203.19 206.29 178.08" stroke="#1D1D1B" stroke-width="2.69" stroke-miterlimit="10"/>
<path d="M155.17 150.62C157.169 150.62 158.79 148.999 158.79 147C158.79 145.001 157.169 143.38 155.17 143.38C153.171 143.38 151.55 145.001 151.55 147C151.55 148.999 153.171 150.62 155.17 150.62Z" fill="white"/>
<path d="M232.08 150.62C234.079 150.62 235.7 148.999 235.7 147C235.7 145.001 234.079 143.38 232.08 143.38C230.081 143.38 228.46 145.001 228.46 147C228.46 148.999 230.081 150.62 232.08 150.62Z" fill="white"/>
<path d="M120.16 267.44H265.16C269.494 267.44 273.65 269.162 276.714 272.226C279.778 275.29 281.5 279.446 281.5 283.78V447.54H103.82V283.78C103.82 279.446 105.542 275.29 108.606 272.226C111.67 269.162 115.826 267.44 120.16 267.44Z" fill="#FAB432" stroke="#1D1D1B" stroke-width="2.69" stroke-miterlimit="10"/>
<path d="M119.55 69.19C119.55 69.19 93.55 60.32 24.82 106.04H6.89C6.89 106.04 87 -12.89 150.91 1.14999C214.82 15.19 259.72 46.37 262.4 69.15" fill="#F6E280"/>
<path d="M119.55 69.19C119.55 69.19 93.55 60.32 24.82 106.04H6.89C6.89 106.04 87 -12.89 150.91 1.14999C214.82 15.19 259.72 46.37 262.4 69.15" stroke="#1D1D1B" stroke-width="2.69" stroke-miterlimit="10"/>
<path d="M272.17 79V100.92C272.157 103.298 271.203 105.575 269.516 107.252C267.83 108.929 265.548 109.87 263.17 109.87H124.94C124.085 109.881 123.231 109.811 122.39 109.66C122.016 109.621 121.645 109.558 121.28 109.47C117.516 108.626 114.151 106.527 111.738 103.517C109.324 100.508 108.006 96.7675 108 92.91V78.14C108 75.7531 108.948 73.4639 110.636 71.7761C112.324 70.0882 114.613 69.14 117 69.14H262.4C263.69 69.1426 264.967 69.4001 266.157 69.8976C267.347 70.3952 268.427 71.123 269.335 72.0392C270.242 72.9555 270.96 74.0421 271.447 75.2367C271.933 76.4312 272.179 77.7102 272.17 79Z" fill="#DCCC85" stroke="#1D1D1B" stroke-width="2.69" stroke-miterlimit="10"/>
<path d="M136.29 109.82H135.22V69.19H135.75C136.53 78.3 137.77 96.57 136.29 109.82Z" fill="#F6E280" stroke="#1D1D1B" stroke-width="2.69" stroke-miterlimit="10"/>
<path d="M150.22 109.82H149.15V69.19H149.69C150.47 78.3 151.7 96.57 150.22 109.82Z" fill="#F6E280" stroke="#1D1D1B" stroke-width="2.69" stroke-miterlimit="10"/>
<path d="M164.16 109.82H163.08V69.19H163.62C164.4 78.3 165.63 96.57 164.16 109.82Z" fill="#F6E280" stroke="#1D1D1B" stroke-width="2.69" stroke-miterlimit="10"/>
<path d="M178.09 109.82H177V69.19H177.54C178.33 78.3 179.54 96.57 178.09 109.82Z" fill="#F6E280" stroke="#1D1D1B" stroke-width="2.69" stroke-miterlimit="10"/>
<path d="M192 109.82H190.93V69.19H191.46C192.23 78.3 193.47 96.57 192 109.82Z" fill="#F6E280" stroke="#1D1D1B" stroke-width="2.69" stroke-miterlimit="10"/>
<path d="M205.92 109.82H204.85V69.19H205.39C206.17 78.3 207.4 96.57 205.92 109.82Z" fill="#F6E280" stroke="#1D1D1B" stroke-width="2.69" stroke-miterlimit="10"/>
<path d="M247.72 109.82H246.64V69.19H247.18C248 78.3 249.2 96.57 247.72 109.82Z" fill="#F6E280" stroke="#1D1D1B" stroke-width="2.69" stroke-miterlimit="10"/>
<path d="M219.86 109.82H218.78V69.19H219.32C220.1 78.3 221.33 96.57 219.86 109.82Z" fill="#F6E280" stroke="#1D1D1B" stroke-width="2.69" stroke-miterlimit="10"/>
<path d="M233.79 109.82H232.71V69.19H233.25C234 78.3 235.27 96.57 233.79 109.82Z" fill="#F6E280" stroke="#1D1D1B" stroke-width="2.69" stroke-miterlimit="10"/>
<path d="M261.65 109.82H260.57V69.19H261.11C261.89 78.3 263.13 96.57 261.65 109.82Z" fill="#F6E280" stroke="#1D1D1B" stroke-width="2.69" stroke-miterlimit="10"/>
<path d="M122.39 109.61C122.016 109.571 121.645 109.508 121.28 109.42V69.19H121.82C122.6 78.25 123.81 96.38 122.39 109.61Z" fill="#F6E280" stroke="#1D1D1B" stroke-width="2.69" stroke-miterlimit="10"/>
<path d="M73.11 58.67C76.2304 58.67 78.76 56.1404 78.76 53.02C78.76 49.8996 76.2304 47.37 73.11 47.37C69.9896 47.37 67.46 49.8996 67.46 53.02C67.46 56.1404 69.9896 58.67 73.11 58.67Z" fill="white" stroke="#1D1D1B" stroke-width="1.11" stroke-miterlimit="10"/>
<path d="M102.35 64.32C105.47 64.32 108 61.7904 108 58.67C108 55.5496 105.47 53.02 102.35 53.02C99.2296 53.02 96.7 55.5496 96.7 58.67C96.7 61.7904 99.2296 64.32 102.35 64.32Z" fill="white" stroke="#1D1D1B" stroke-width="1.11" stroke-miterlimit="10"/>
<path d="M108 26.88C111.12 26.88 113.65 24.3504 113.65 21.23C113.65 18.1096 111.12 15.58 108 15.58C104.88 15.58 102.35 18.1096 102.35 21.23C102.35 24.3504 104.88 26.88 108 26.88Z" fill="white" stroke="#1D1D1B" stroke-width="1.11" stroke-miterlimit="10"/>
<path d="M131.33 49.48C134.45 49.48 136.98 46.9504 136.98 43.83C136.98 40.7096 134.45 38.18 131.33 38.18C128.21 38.18 125.68 40.7096 125.68 43.83C125.68 46.9504 128.21 49.48 131.33 49.48Z" fill="white" stroke="#1D1D1B" stroke-width="1.11" stroke-miterlimit="10"/>
<path d="M142.63 23.04C145.75 23.04 148.28 20.5104 148.28 17.39C148.28 14.2696 145.75 11.74 142.63 11.74C139.51 11.74 136.98 14.2696 136.98 17.39C136.98 20.5104 139.51 23.04 142.63 23.04Z" fill="white" stroke="#1D1D1B" stroke-width="1.11" stroke-miterlimit="10"/>
<path d="M172.95 32.53C176.07 32.53 178.6 30.0004 178.6 26.88C178.6 23.7596 176.07 21.23 172.95 21.23C169.83 21.23 167.3 23.7596 167.3 26.88C167.3 30.0004 169.83 32.53 172.95 32.53Z" fill="white" stroke="#1D1D1B" stroke-width="1.11" stroke-miterlimit="10"/>
<path d="M218.78 43.83C221.9 43.83 224.43 41.3004 224.43 38.18C224.43 35.0596 221.9 32.53 218.78 32.53C215.66 32.53 213.13 35.0596 213.13 38.18C213.13 41.3004 215.66 43.83 218.78 43.83Z" fill="white" stroke="#1D1D1B" stroke-width="1.11" stroke-miterlimit="10"/>
<path d="M208.41 64.32C211.53 64.32 214.06 61.7904 214.06 58.67C214.06 55.5496 211.53 53.02 208.41 53.02C205.29 53.02 202.76 55.5496 202.76 58.67C202.76 61.7904 205.29 64.32 208.41 64.32Z" fill="white" stroke="#1D1D1B" stroke-width="1.11" stroke-miterlimit="10"/>
<path d="M164.85 64.32C167.97 64.32 170.5 61.7904 170.5 58.67C170.5 55.5496 167.97 53.02 164.85 53.02C161.73 53.02 159.2 55.5496 159.2 58.67C159.2 61.7904 161.73 64.32 164.85 64.32Z" fill="white" stroke="#1D1D1B" stroke-width="1.11" stroke-miterlimit="10"/>
<path d="M46.36 81.46C49.4804 81.46 52.01 78.9304 52.01 75.81C52.01 72.6896 49.4804 70.16 46.36 70.16C43.2396 70.16 40.71 72.6896 40.71 75.81C40.71 78.9304 43.2396 81.46 46.36 81.46Z" fill="white" stroke="#1D1D1B" stroke-width="1.11" stroke-miterlimit="10"/>
<path d="M12.77 126.98C19.8227 126.98 25.54 121.263 25.54 114.21C25.54 107.157 19.8227 101.44 12.77 101.44C5.71732 101.44 0 107.157 0 114.21C0 121.263 5.71732 126.98 12.77 126.98Z" fill="white" stroke="#1D1D1B" stroke-width="2.52" stroke-miterlimit="10"/>
<path d="M134.65 327.38V447.54" stroke="#1D1D1B" stroke-width="2.69" stroke-miterlimit="10"/>
<path d="M251.04 327.38V447.54" stroke="#1D1D1B" stroke-width="2.69" stroke-miterlimit="10"/>
</g>
<defs>
<clipPath id="clip0_33_87">
<rect width="342.9" height="447.54" fill="white"/>
</clipPath>
</defs>
</svg>
