<?xml version="1.0" encoding="utf-8"?>
<!-- Generator: Adobe Illustrator 25.0.0, SVG Export Plug-In . SVG Version: 6.00 Build 0)  -->
<svg version="1.1" id="Layer_1" xmlns="http://www.w3.org/2000/svg" xmlns:xlink="http://www.w3.org/1999/xlink" x="0px" y="0px"
	 viewBox="0 0 800 800" style="enable-background:new 0 0 800 800;" xml:space="preserve">
<style type="text/css">
	.st0{fill:none;stroke:#FFFFFF;stroke-width:81.574;stroke-linecap:round;stroke-linejoin:round;stroke-miterlimit:133.3333;}
</style>
<path class="st0" d="M685.5,750.2L580.2,645.4 M114.5,750.2l105.3-104.8 M400,301.5v122.4l58.8,57.8 M185.6,73.8
	c-15.3-15.3-36-23.9-57.7-23.9c-21.6,0-42.4,8.6-57.7,23.9s-23.9,36-23.9,57.7c0,21.6,8.6,42.4,23.9,57.7 M729.8,189.1
	c15.3-15.3,23.9-36,23.9-57.7c0-21.6-8.6-42.4-23.9-57.7c-15.3-15.3-36-23.9-57.7-23.9c-21.6,0-42.4,8.6-57.7,23.9 M685.5,423.9
	c0,157.7-127.8,285.5-285.5,285.5S114.5,581.6,114.5,423.9c0-157.7,127.8-285.5,285.5-285.5S685.5,266.2,685.5,423.9z"/>
</svg>
